# xmcd
#
# Track frame offsets:
#        187
#        14315
#        27860
#        39935
#        53212
#        67035
#        83252
#        96700
#
# Disc length: 1417 seconds
#
# Revision: 0
# Processed by: cddbd v1.5.1PL0 Copyright (c) Steve Scherf et al.
# Submitted via: ExactAudioCopy v0.95a5
#
DISCID=5c058708
DTITLE=Ocean Colour Scene - BESIDE OURSELVES
DYEAR=1996
DGENRE=Rock
TTITLE0=THE CIRCLE(ACOUSTIC)
TTITLE1=ALIBIS
TTITLE2=COOL COOL WATER
TTITLE3=CHARLIE BROWN SAYS
TTITLE4=HERE IN MY HEART
TTITLE5=CHICKEN BONES AND STONES
TTITLE6=MRS JONES
TTITLE7=I NEED A LOVE SONG
EXTD=
EXTT0=
EXTT1=
EXTT2=
EXTT3=
EXTT4=
EXTT5=
EXTT6=
EXTT7=
PLAYORDER=
